<svg id="Der" xmlns="http://www.w3.org/2000/svg" width="400" height="5600" viewBox="0 0 400 5600">
  <defs>
    <style>
      .cls-1 {
        fill: #035eeb;
      }

      .cls-2 {
        fill: #01cba1;
      }

      .cls-3 {
        fill: #ffa300;
      }
    </style>
  </defs>
  <rect id="Rectangle_1_copy_12" data-name="Rectangle 1 copy 12" class="cls-1" x="200" y="1200" width="100" height="100"/>
  <rect id="Rectangle_1_copy_14" data-name="Rectangle 1 copy 14" class="cls-1" x="300" y="1400" width="100" height="100"/>
  <rect id="Rectangle_1_copy_7" data-name="Rectangle 1 copy 7" class="cls-1" x="300" y="700" width="100" height="100"/>
  <rect id="Rectangle_1_copy" data-name="Rectangle 1 copy" class="cls-2" x="200" width="100" height="100"/>
  <rect id="Rectangle_1_copy_4" data-name="Rectangle 1 copy 4" class="cls-2" x="200" y="300" width="100" height="100"/>
  <rect id="Rectangle_1_copy_18" data-name="Rectangle 1 copy 18" class="cls-2" x="300" y="1800" width="100" height="100"/>
  <rect id="Rectangle_1_copy_37" data-name="Rectangle 1 copy 37" class="cls-2" x="200" y="3900" width="100" height="100"/>
  <rect id="Rectangle_1_copy_52" data-name="Rectangle 1 copy 52" class="cls-2" x="300" y="5000" width="100" height="100"/>
  <rect id="Rectangle_1_copy_8" data-name="Rectangle 1 copy 8" class="cls-2" x="200" y="800" width="100" height="100"/>
  <rect id="Rectangle_1_copy_2" data-name="Rectangle 1 copy 2" class="cls-3" x="300" y="100" width="100" height="100"/>
  <rect id="Rectangle_1_copy_11" data-name="Rectangle 1 copy 11" class="cls-3" x="200" y="1000" width="100" height="100"/>
  <rect id="Rectangle_1_copy_17" data-name="Rectangle 1 copy 17" class="cls-1" x="200" y="1700" width="100" height="100"/>
  <rect id="Rectangle_1_copy_22" data-name="Rectangle 1 copy 22" class="cls-1" x="300" y="2300" width="100" height="100"/>
  <rect id="Rectangle_1_copy_24" data-name="Rectangle 1 copy 24" class="cls-1" x="200" y="2600" width="100" height="100"/>
  <rect id="Rectangle_1_copy_25" data-name="Rectangle 1 copy 25" class="cls-1" x="300" y="2600" width="100" height="100"/>
  <rect id="Rectangle_1_copy_26" data-name="Rectangle 1 copy 26" class="cls-1" x="200" y="2700" width="100" height="100"/>
  <rect id="Rectangle_1_copy_29" data-name="Rectangle 1 copy 29" class="cls-1" x="200" y="3100" width="100" height="100"/>
  <rect id="Rectangle_1_copy_33" data-name="Rectangle 1 copy 33" class="cls-1" x="200" y="3400" width="100" height="100"/>
  <rect id="Rectangle_1_copy_38" data-name="Rectangle 1 copy 38" class="cls-1" x="300" y="4000" width="100" height="100"/>
  <rect id="Rectangle_1_copy_43" data-name="Rectangle 1 copy 43" class="cls-1" x="300" y="4500" width="100" height="100"/>
  <rect id="Rectangle_1_copy_47" data-name="Rectangle 1 copy 47" class="cls-1" x="200" y="5100" width="100" height="100"/>
  <rect id="Rectangle_1_copy_50" data-name="Rectangle 1 copy 50" class="cls-1" x="300" y="5500" width="100" height="100"/>
  <rect id="Rectangle_1_copy_41" data-name="Rectangle 1 copy 41" class="cls-1" x="200" y="4300" width="100" height="100"/>
  <rect id="Rectangle_1_copy_30" data-name="Rectangle 1 copy 30" class="cls-1" x="300" y="3000" width="100" height="100"/>
  <rect id="Rectangle_1_copy_21" data-name="Rectangle 1 copy 21" class="cls-3" x="300" y="2100" width="100" height="100"/>
  <rect id="Rectangle_1_copy_34" data-name="Rectangle 1 copy 34" class="cls-3" x="200" y="3600" width="100" height="100"/>
  <rect id="Rectangle_1_copy_44" data-name="Rectangle 1 copy 44" class="cls-3" x="200" y="4500" width="100" height="100"/>
  <rect id="Rectangle_1_copy_46" data-name="Rectangle 1 copy 46" class="cls-3" x="300" y="4700" width="100" height="100"/>
  <rect class="cls-1" x="100" width="100" height="100"/>
  <rect id="Rectangle_1_copy_10" data-name="Rectangle 1 copy 10" class="cls-1" x="100" y="1000" width="100" height="100"/>
  <rect id="Rectangle_1_copy_13" data-name="Rectangle 1 copy 13" class="cls-1" y="1300" width="100" height="100"/>
  <rect id="Rectangle_1_copy_15" data-name="Rectangle 1 copy 15" class="cls-1" x="100" y="1500" width="100" height="100"/>
  <rect id="Rectangle_1_copy_3" data-name="Rectangle 1 copy 3" class="cls-1" y="100" width="100" height="100"/>
  <rect id="Rectangle_1_copy_5" data-name="Rectangle 1 copy 5" class="cls-1" y="400" width="100" height="100"/>
  <rect id="Rectangle_1_copy_9" data-name="Rectangle 1 copy 9" class="cls-2" y="900" width="100" height="100"/>
  <rect id="Rectangle_1_copy_19" data-name="Rectangle 1 copy 19" class="cls-2" x="100" y="1900" width="100" height="100"/>
  <rect id="Rectangle_1_copy_27" data-name="Rectangle 1 copy 27" class="cls-2" x="100" y="2700" width="100" height="100"/>
  <rect id="Rectangle_1_copy_28" data-name="Rectangle 1 copy 28" class="cls-2" y="2900" width="100" height="100"/>
  <rect id="Rectangle_1_copy_32" data-name="Rectangle 1 copy 32" class="cls-2" y="3300" width="100" height="100"/>
  <rect id="Rectangle_1_copy_36" data-name="Rectangle 1 copy 36" class="cls-2" y="3800" width="100" height="100"/>
  <rect id="Rectangle_1_copy_51" data-name="Rectangle 1 copy 51" class="cls-2" x="100" y="4900" width="100" height="100"/>
  <rect id="Rectangle_1_copy_53" data-name="Rectangle 1 copy 53" class="cls-2" x="100" y="5500" width="100" height="100"/>
  <rect id="Rectangle_1_copy_6" data-name="Rectangle 1 copy 6" class="cls-3" y="600" width="100" height="100"/>
  <rect id="Rectangle_1_copy_16" data-name="Rectangle 1 copy 16" class="cls-3" y="1500" width="100" height="100"/>
  <rect id="Rectangle_1_copy_20" data-name="Rectangle 1 copy 20" class="cls-1" y="2000" width="100" height="100"/>
  <rect id="Rectangle_1_copy_23" data-name="Rectangle 1 copy 23" class="cls-1" x="100" y="2500" width="100" height="100"/>
  <rect id="Rectangle_1_copy_35" data-name="Rectangle 1 copy 35" class="cls-1" x="100" y="3700" width="100" height="100"/>
  <rect id="Rectangle_1_copy_42" data-name="Rectangle 1 copy 42" class="cls-1" x="100" y="4400" width="100" height="100"/>
  <rect id="Rectangle_1_copy_49" data-name="Rectangle 1 copy 49" class="cls-1" x="100" y="5400" width="100" height="100"/>
  <rect id="Rectangle_1_copy_45" data-name="Rectangle 1 copy 45" class="cls-1" y="4700" width="100" height="100"/>
  <rect id="Rectangle_1_copy_40" data-name="Rectangle 1 copy 40" class="cls-1" y="4200" width="100" height="100"/>
  <rect id="Rectangle_1_copy_17-2" data-name="Rectangle 1 copy 17" class="cls-3" x="100" y="1700" width="100" height="100"/>
  <rect id="Rectangle_1_copy_31" data-name="Rectangle 1 copy 31" class="cls-3" x="100" y="3100" width="100" height="100"/>
  <rect id="Rectangle_1_copy_39" data-name="Rectangle 1 copy 39" class="cls-3" y="4003" width="100" height="100"/>
  <rect id="Rectangle_1_copy_48" data-name="Rectangle 1 copy 48" class="cls-3" x="100" y="5200" width="100" height="100"/>
</svg>
