<svg width="443" height="312" viewBox="0 0 443 312" fill="none" xmlns="http://www.w3.org/2000/svg">
<path d="M319.114 96.8815C319.114 150.388 275.599 193.763 221.922 193.763C168.244 193.763 124.729 150.388 124.729 96.8815C124.729 43.3753 168.244 3.05176e-05 221.922 3.05176e-05C275.599 3.05176e-05 319.114 43.3753 319.114 96.8815Z" fill="url(#paint0_linear_2_9)"/>
<path d="M260.266 156.566C260.23 156.598 260.192 156.63 260.154 156.662C258.244 158.255 255.235 158.126 253.635 156.223L218.399 114.122C216.799 112.22 216.929 109.137 218.84 107.543C220.75 105.95 223.846 106.08 225.446 107.982L252.993 141.15V119.772L226.768 87.3005C225.168 85.3982 224.857 82.169 226.768 80.576C228.529 78.8217 232.508 78.6737 234.108 80.576C235.708 82.4783 252.993 105.777 252.993 105.777L252.815 84.604L218.313 43.672C216.713 41.7697 217.025 38.6046 218.936 37.0115C220.846 35.4185 223.993 35.7644 225.593 37.6667L260.155 79.3413C260.324 79.5417 260.762 79.9999 260.889 80.2184C261.428 80.9585 261.917 82.0121 261.917 82.996V153.019C261.917 154.465 261.33 155.619 260.266 156.566Z" fill="#A6A6F4"/>
<path d="M183.474 156.566C183.511 156.598 183.548 156.63 183.586 156.662C185.496 158.255 188.505 158.126 190.105 156.223L225.34 114.122C226.94 112.22 226.811 109.137 224.9 107.543C222.99 105.95 219.893 106.08 218.293 107.982L190.747 141.15V119.772L216.972 87.3005C218.572 85.3982 218.883 82.169 216.972 80.576C215.21 78.8217 211.231 78.6737 209.631 80.576C208.032 82.4783 190.747 105.777 190.747 105.777L190.925 84.604L225.427 43.672C227.027 41.7697 226.714 38.6046 224.804 37.0115C222.893 35.4185 219.746 35.7644 218.147 37.6667L183.585 79.3413C183.416 79.5417 182.978 79.9999 182.851 80.2184C182.312 80.9585 181.823 82.0121 181.823 82.996V153.019C181.823 154.465 182.41 155.619 183.474 156.566Z" fill="white"/>
<path d="M0 311.214V236.376H32.0562V246.466H10.7557V268.434H29.3145V278.525H10.7557V300.493H32.0562V311.214H0Z" fill="white"/>
<path d="M63.1791 311.214L78.3636 272.008L64.3391 236.376H75.7274L83.8469 258.554L92.0719 236.376H103.46L89.1193 272.008L104.62 311.214H93.2318L83.8469 285.988L74.5675 311.214H63.1791Z" fill="white"/>
<path d="M160.582 285.042L155.309 257.923H155.099L149.826 285.042H160.582ZM134.009 311.214L150.775 236.376H159.738L176.505 311.214H165.749L162.585 295.133H147.928L144.765 311.214H134.009Z" fill="white"/>
<path d="M245.389 289.877V294.502C245.389 296.814 244.932 299.022 244.019 301.124C243.175 303.156 241.98 304.978 240.433 306.59C238.887 308.201 237.059 309.498 234.95 310.479C232.911 311.39 230.697 311.845 228.307 311.845C226.268 311.845 224.194 311.565 222.085 311.004C219.976 310.444 218.078 309.463 216.391 308.061C214.704 306.66 213.298 304.873 212.173 302.7C211.119 300.458 210.592 297.62 210.592 294.187V252.983C210.592 250.53 211.013 248.253 211.857 246.151C212.701 244.049 213.896 242.227 215.442 240.685C216.989 239.143 218.816 237.952 220.925 237.111C223.105 236.2 225.495 235.745 228.096 235.745C233.157 235.745 237.27 237.392 240.433 240.685C241.98 242.297 243.175 244.224 244.019 246.466C244.932 248.638 245.389 251.021 245.389 253.614V257.818H234.634V254.244C234.634 252.142 234.036 250.32 232.841 248.779C231.646 247.237 230.029 246.466 227.99 246.466C225.319 246.466 223.526 247.307 222.613 248.989C221.769 250.601 221.347 252.668 221.347 255.19V293.451C221.347 295.623 221.804 297.445 222.718 298.916C223.702 300.388 225.425 301.124 227.885 301.124C228.588 301.124 229.326 301.019 230.099 300.808C230.943 300.528 231.716 300.108 232.419 299.547C233.052 298.987 233.579 298.216 234.001 297.235C234.423 296.254 234.634 295.027 234.634 293.556V289.877H245.389Z" fill="white"/>
<path d="M290.654 311.214V246.466H278.211V236.376H313.852V246.466H301.41V311.214H290.654Z" fill="white"/>
<path d="M348.024 311.214V236.376H358.78V300.493H380.08V311.214H348.024Z" fill="white"/>
<path d="M416.814 311.214V279.576L402.051 236.376H413.439L422.086 266.122H422.297L430.944 236.376H442.332L427.569 279.576V311.214H416.814Z" fill="white"/>
<defs>
<linearGradient id="paint0_linear_2_9" x1="319.114" y1="96.8817" x2="124.729" y2="96.8817" gradientUnits="userSpaceOnUse">
<stop stop-color="#4D4DE8"/>
<stop offset="1" stop-color="#7BF5E1"/>
</linearGradient>
</defs>
</svg>
